<?xml version="1.0" encoding="UTF-8"?> <!-- Generator: Adobe Illustrator 15.1.0, SVG Export Plug-In --> <svg xmlns="http://www.w3.org/2000/svg" xmlns:xlink="http://www.w3.org/1999/xlink" xmlns:a="http://ns.adobe.com/AdobeSVGViewerExtensions/3.0/" x="0px" y="0px" width="200px" height="200px" viewBox="-25.502 -34.36 200 200" xml:space="preserve"> <defs> </defs> <path fill="#FFFFFF" d="M103.83,28.685c0,0,0.503-0.782,2.463-0.109c1.96,0.672,1.731,0.993,3.856,1.563 c2.125,0.569,2.35,0.109,3.578,0.946c1.228,0.837,0.059,0.993,2.182,1.84c2.121,0.848,5.425,1.95,6.878,3.068 c1.452,1.119,0.661,1.324,2.515,2.509c1.854,1.185,1.956,1.225,2.979,1.225c1.022,0,0.166-0.166,2.234,0.785 c2.069,0.95,3.356,0.612,3.916,2.174s0.056,2.006,0.662,2.9c0.605,0.894,0.73,1.228,1.399,2.23c0.67,1.003,0.504,2.01,1.453,2.063 c0.95,0.053,4.965,2.287,6.544,4.687c1.579,2.4,1.848,6.915,3.691,9.983s4.361,8.979,3.355,10.039s-0.787,1.563-2.979,2.399 c-2.191,0.838-3.019,1.06-3.747,0.947c-0.451-0.072-0.887-0.223-1.288-0.443c0,0-3.972,6.414-5.644,8.199 c-1.671,1.784-2.8,1.893-3.69,3.681c-0.891,1.787-0.784,2.677-1.621,4.071c-0.838,1.394-1.457,1.059-1.792,2.452 c-0.333,1.394,0.057,2.678-0.33,5.021s-0.169,3.455,0,5.296s1.506,12.492,2.013,14.564c0.507,2.071,1.119,5.352,0.894,6.024 c-0.24,0.566-0.261,1.203-0.057,1.784c0.223,0.556,2.571,5.626,0.616,6.357c-1.957,0.732-3.354,0.113-4.635-0.391 c-1.281-0.503-3.074-1.73-5.984-1.506c-2.909,0.226-5.313,0.726-6.601,0.056c-1.287-0.668-2.515-1.339-2.515-1.339 s-1.434,1.843-3.311,1.562s-4.246-0.503-6.818-0.725c-2.572-0.223-3.807,0.278-5.26-0.392c-1.453-0.668-2.006-1.121-2.73-1.121 s-0.662-0.662-1.119-0.781c-0.412-0.092-0.797-0.282-1.119-0.556c-0.112-0.169,0.166-0.223-0.277-0.504 c-0.444-0.281-0.563-0.331-0.619-0.503s-0.277-0.222-0.503-0.612c-0.225-0.391-0.447-0.5-0.222-0.894 c0.225-0.394,0.894-0.5,0.894-0.5s-2.013-1.84-1.175-2.509c0.837-0.669,1.625-0.447,2.406,0c0.781,0.446,2.237,1.225,5.091,0.89 c2.854-0.333,2.963-0.164,4.358-0.993c1.398-0.826,1.679-1.562,1.679-1.562c-0.573-0.564-1.396-0.797-2.181-0.612 c-1.397,0.278-1.231,0.834-2.517,1.168c-1.283,0.335-2.069,1.172-2.181-0.165c-0.225-3.565-0.263-7.14-0.113-10.708 c0.225-3.972-0.168-5.581-0.056-8.424c0.112-2.844-0.331-6.358,0.391-9.202c0.722-2.843,1.453-6.289,3.746-10.038 c2.295-3.752,7.772-7.476,7.772-7.476l-0.5-2.62c0,0-3.355,2.062-5.034,3.641c-1.678,1.579-2.851,2.843-2.851,2.843l-1.231-1.28 c0,0,7.283-7.141,9.785-9.314c2.503-2.175,4.81-4.496,4.81-4.496s-2.317,0.5-4.303-0.33c-1.986-0.831-3.188-1.45-3.188-1.45 s-1.063,5.689-4.474,5.297c-3.017-0.342-5.98-1.034-8.835-2.063c-2.235-0.837-3.973-0.992-4.753-1.728 c-0.782-0.734-1.844-1.84-1.844-1.84s-0.447,3.064-3.311,4.57s-4.303,1.897-5.478,3.069c-1.175,1.171-3.312,4.184-7.382,5.957 c-4.071,1.775-8.894,2.9-9.566,3.456c-0.671,0.557-1.453,1.844-3.744,3.016c-2.29,1.172-3.412,1.655-4.475,2.343 c-1.063,0.689-1.288,1.729-4.922,1.447c-3.34-0.233-6.664-0.661-9.954-1.281c-2.276-0.445-4.455-1.295-6.431-2.509 c0,0,0.897,8.698,0.056,8.698c-2.269-0.137-4.518-0.511-6.709-1.114c-2.797-0.778-6.097-1.95-6.097-1.95s-0.503,1.84-1.229,2.452 c-0.641,0.587-1.153,1.3-1.502,2.096c-0.331,0.662-0.728,3.068-1.959,2.959s-2.738-0.56-3.356-1.063 c-0.619-0.503-1.059-1.281-2.512-1.449c-1.453-0.169-2.185-0.726-2.688-1.507c-0.503-0.781-0.781-1.506-0.993-1.729 c-0.212-0.221-1.619-2.23-0.662-2.62c0.957-0.391,1.565,0.503,3.466,0.112c1.9-0.391,3.336-1.188,3.796-1.986 c0.319-0.585,0.736-1.112,1.231-1.559c0.559-0.56,0.781-1.324,1.678-2.734s4.303-6.472,5.296-8.98 c0.993-2.509,3.469-6.58,3.469-6.58s-1.119-4.853-1.063-8.646s0-5.188-0.728-6.415c-0.729-1.228-1.063-1.394-1.678-3.29 c-0.616-1.896-0.278-2.678-1.453-3.641c-1.852-1.518-3.39-3.382-4.528-5.488c-1.231-2.459-5.144-8.315-6.6-9.821 c-1.457-1.506-1.957-1.619-3.019-3.419c-1.063-1.801-1.622-2.393-2.182-3.234c-0.559-0.841-0.993-0.993-1.175-1.394 c-0.182-0.4-1.341-2.439-1.397-3.667S-0.233,9.331,0.488,6.878C1.21,4.425,1.984,3.475,2.448,3.082 c0.331-0.258,0.71-0.448,1.116-0.556c0.182-0.387,0.45-0.727,0.784-0.993c0.447-0.281,0.503,0.057,0.894-0.222 C5.478,1.134,5.743,1,6.026,0.917c0.278-0.109,0.503,0.113,0.781-0.166c0.278-0.278,0.281-0.41,0.616-0.41 c0.331,0.027,0.663,0.027,0.993,0c0.226-0.056,0.332-0.503,1.232-0.278c0.9,0.225,1.34,0.278,1.396,1.728 c0.057,1.45-0.781,3.459-0.391,4.071c0.8,1.021,1.791,1.878,2.916,2.522c0.957,0.443,3.528,2.509,4.634,4.866 c1.105,2.357,1.396,4.687,2.572,5.356c1.175,0.668,1.453,0.781,2.741,2.843s-0.225,1.115,2.459,3.31 c2.685,2.195,3.151,3.813,4.039,5.432s1.4,2.343,2.181,4.071c0.781,1.728,1.622,2.899,2.516,4.303 c0.5,0.733,0.878,1.542,1.122,2.396c0,0,0.781-3.641,2.069-4.237c0.688-0.36,1.458-0.534,2.234-0.503c0,0,1.063-2.565,2.237-3.972 c1.175-1.407,1.566-1.731,1.9-2.174c0.201-0.313,0.446-0.595,0.728-0.837c0.245-0.17,0.506-0.314,0.781-0.431 c0,0,1.456-2.231,1.959-2.678c0.271-0.257,0.621-0.414,0.993-0.447c0,0,1.804-2.171,2.417-2.502c0.612-0.331,1.063,0,0.662,1.172 c-0.299,0.975-0.673,1.926-1.119,2.843c-0.331,0.612-1.063,2.287-1.678,3.181c-0.616,0.894-1.566,3.346-2.069,4.405 c-0.503,1.059-0.781,1.506-1.397,2.734c-0.615,1.228-0.728,3.737-0.841,5.018c-0.112,1.281-0.109,2.4-0.109,2.4l-0.112,1.116 c0,0,0.725-0.894,2.459-1.324c1.734-0.43,1.396,0.113,2.572-1.171c1.175-1.285,1.903-3.347,2.685-2.619 c0.781,0.729,1.678,3.399,2.979,3.399c1.301,0,2.681,0,3.578,0.503c0.639,0.373,1.254,0.783,1.844,1.228l0.662-0.95 c0,0-1.396-1.45-0.662-2.009c0.695-0.462,1.334-1.004,1.903-1.615c0.56-0.662,1.285-1.731,1.285-2.174 c0-0.444-0.662-1.285,0.281-2.231s2.853-1.953,2.853-1.953s-1.066-2.065,1.731-3.233c2.797-1.168,10.625-2.847,14.371,2.175 c3.748,5.021,2.741,7.583,1.623,9.268c-1.119,1.685-1.848,2.677-1.848,2.677s2.688-0.278,3.916,0.391s1.344,1.172,2.459,0.613 c1.117-0.56,1.119-0.222,1.791-1.671c0.673-1.45,1.119-4.519,1.287-5.803c0.17-1.284,0.447-2.453,0.947-3.178s1.01-1.324,1.01-1.324 c-0.366-0.706-1.058-1.185-1.847-1.281c-1.341-0.169-2.182-0.056-2.628-0.331c-0.447-0.274-0.662-0.331-0.782-0.993 c-0.118-0.662,0-0.725-0.225-1.281c-0.226-0.556-0.391-0.662-0.391-1.116c0-0.453,0.226-0.612-0.169-0.993s-0.56-0.576-0.615-0.907 c-0.057-0.265-0.132-0.526-0.225-0.781c0,0-1.961-0.113-1.623-1.228c0.338-1.116,1.397-2.175,1.285-2.734 c-0.113-0.559-0.391-0.612-0.332-1.45c0.061-0.837,0.226-1.45,0.226-2.062s-1.119-2.956,0.056-4.015 c1.176-1.059,3.188-3.068,5.366-4.071s2.8-1.397,4.254-1.397c0.79-0.032,1.571,0.183,2.233,0.616c0,0-0.391-1.232,1.063-2.344 c1.454-1.112,1.457-1.449,2.52-1.562c0.631-0.068,1.269-0.068,1.899,0c0,0,0.331-0.556-1.063-1.394 c-1.393-0.837-2.013-1.115-2.463-1.84s-1.228-1.396-0.95-1.45c0.279-0.053,0.993,0.222,1.063-0.06 c0.07-0.282-0.992-1.116-0.78-1.324c0.212-0.208,0.949,0.781,1.956,1.324c1.006,0.543,0.993,0.725,2.068,0.95 c1.076,0.225,1.119-0.057,2.069,1.115s0.728,1.453,0.728,2.009s-1.452,0.662,0.95,0.5c2.403-0.162,3.525,0.894,3.525,0.894 s-1.773-0.39-2.369-0.331c-0.597,0.06-1.884,0.443-1.385,0.774c0.5,0.331,0.896-0.169,2.407,0.946 c0.887,0.646,1.392,1.694,1.344,2.791c-0.247-0.714-0.719-1.329-1.344-1.751c-0.795-0.445-1.668-0.729-2.572-0.834 c0,0,2.905,1.324,2.905,3.972s-0.502,3.793-0.502,3.793s-0.503-3.972-1.342-5.134c-0.837-1.162-2.293-1.616-2.405-1.394 c-0.112,0.222,1.344,3.568,0.129,3.677s-2.797,0.109-2.797,0.109s1.513,1.228,1.682,2.79c0.169,1.562-0.331,2.175,0.442,3.402 c0.775,1.229,1.569,2.119,1.569,3.791c0,1.671-0.394,2.734-1.175,2.902c-0.781,0.169-1.734,0-2.072,0.166 c-0.338,0.166-0.053,1.172-0.053,1.172"></path> </svg> 